<svg width="32" height="32" viewBox="0 0 32 32" fill="none" xmlns="http://www.w3.org/2000/svg">
<path d="M2.79902 16.5012C3.55811 15.5524 4.70737 15 5.9225 15H26.0775C27.2926 15 28.4419 15.5524 29.201 16.5012L31.3426 19.1783C31.7682 19.7102 32 20.3711 32 21.0523V24H0V21.0523C0 20.3711 0.231842 19.7102 0.657394 19.1783L2.79902 16.5012Z" fill="#197BFF"/>
<path d="M2.79902 2.50122C3.55811 1.55236 4.70737 1 5.9225 1H26.0775C27.2926 1 28.4419 1.55236 29.201 2.50122L31.3426 5.17826C31.7682 5.7102 32 6.37113 32 7.05234V10H0V7.05234C0 6.37113 0.231842 5.7102 0.657394 5.17826L2.79902 2.50122Z" fill="#197BFF"/>
<path d="M0 21C0 19.8954 0.895431 19 2 19H30C31.1046 19 32 19.8954 32 21V29C32 30.1046 31.1046 31 30 31H2C0.895431 31 0 30.1046 0 29V21Z" fill="#B2D3FF"/>
<path d="M0 7C0 5.89543 0.895431 5 2 5H30C31.1046 5 32 5.89543 32 7V15C32 16.1046 31.1046 17 30 17H2C0.895431 17 0 16.1046 0 15V7Z" fill="#B2D3FF"/>
<path d="M8 25C8 26.1046 7.10457 27 6 27C4.89543 27 4 26.1046 4 25C4 23.8954 4.89543 23 6 23C7.10457 23 8 23.8954 8 25Z" fill="#297EF2"/>
<path d="M8 11C8 12.1046 7.10457 13 6 13C4.89543 13 4 12.1046 4 11C4 9.89543 4.89543 9 6 9C7.10457 9 8 9.89543 8 11Z" fill="#297EF2"/>
</svg>
