<svg width="160" height="160" viewBox="0 0 160 160" fill="none" xmlns="http://www.w3.org/2000/svg">
<path fill-rule="evenodd" clip-rule="evenodd" d="M64.8287 5C67.6031 5 71.4379 6.5625 73.4015 8.49751L80 15H150.03C155.536 15 160 19.4749 160 24.985V135.015C160 140.53 155.554 145 149.991 145H10.0087C4.48106 145 0 140.501 0 135.044V9.98267C0 7.23082 2.245 5 5.0236 5H64.8287Z" fill="#B2D3FF"/>
<path fill-rule="evenodd" clip-rule="evenodd" d="M0 6C0 5.44772 0.447715 5 1 5H69.5858C69.851 5 70.1054 5.10536 70.2929 5.29289L79.7071 14.7071C79.8946 14.8946 80.149 15 80.4142 15H158C159.105 15 160 15.8954 160 17V25H80.4142C80.149 25 79.8946 25.1054 79.7071 25.2929L70.2929 34.7071C70.1054 34.8946 69.851 35 69.5858 35H0.999998C0.447713 35 0 34.5523 0 34V6Z" fill="#197BFF"/>
</svg>
