<svg width="32" height="32" viewBox="0 0 32 32" fill="none" xmlns="http://www.w3.org/2000/svg">
<path d="M16 12C11.6741 12 7.92593 12.5867 4.75556 13.76C1.58519 14.9333 0 16.3467 0 18V26C0 27.6533 1.58519 29.0667 4.75556 30.24C7.92593 31.4133 11.6741 32 16 32C20.3259 32 24.0741 31.4133 27.2444 30.24C30.4148 29.0667 32 27.6533 32 26V18C32 16.3467 30.4148 14.9333 27.2444 13.76C24.0741 12.5867 20.3259 12 16 12Z" fill="#297EF2"/>
<path d="M16 5C11.6741 5 7.92593 5.58667 4.75556 6.76C1.58519 7.93333 0 9.34667 0 11V19C0 20.6533 1.58519 22.0667 4.75556 23.24C7.92593 24.4133 11.6741 25 16 25C20.3259 25 24.0741 24.4133 27.2444 23.24C30.4148 22.0667 32 20.6533 32 19V11C32 9.34667 30.4148 7.93333 27.2444 6.76C24.0741 5.58667 20.3259 5 16 5Z" fill="#579EFF"/>
<path d="M16 0C11.6741 0 7.92593 0.586668 4.75556 1.76C1.58519 2.93333 0 4.34667 0 6V12C0 13.6533 1.58519 15.0667 4.75556 16.24C7.92593 17.4133 11.6741 18 16 18C20.3259 18 24.0741 17.4133 27.2444 16.24C30.4148 15.0667 32 13.6533 32 12V6C32 4.34667 30.4148 2.93333 27.2444 1.76C24.0741 0.586668 20.3259 0 16 0Z" fill="#91BFFF"/>
<ellipse cx="16" cy="5.5" rx="16" ry="5.5" fill="#B3D3FF"/>
</svg>
