<svg width="16" height="16" viewBox="0 0 16 16" fill="none" xmlns="http://www.w3.org/2000/svg">
<path fill-rule="evenodd" clip-rule="evenodd" d="M10.0667 0.274385C9.53325 0.131295 8.98483 0.447725 8.84174 0.981152C8.69865 1.51458 9.01508 2.063 9.5485 2.20609L9.55607 2.20813C10.0893 2.35191 10.6381 2.0362 10.7819 1.50296C10.9257 0.969723 10.61 0.420885 10.0768 0.277098L10.0667 0.274385ZM13.6533 2.34203C13.2622 1.95213 12.629 1.95313 12.2391 2.34427C11.8492 2.73542 11.8502 3.36858 12.2414 3.75849L12.2469 3.76402C12.6375 4.15443 13.2707 4.15426 13.6611 3.76363C14.0515 3.37299 14.0514 2.73983 13.6607 2.34941L13.6533 2.34203ZM15.726 5.92843C15.5828 5.39505 15.0342 5.07882 14.5008 5.22211C13.9675 5.36539 13.6512 5.91393 13.7945 6.4473L13.7966 6.45494C13.9392 6.9885 14.4873 7.30544 15.0209 7.16284C15.5544 7.02024 15.8714 6.47211 15.7288 5.93855L15.726 5.92843ZM6.95845 1.00865C7.11599 1.53799 6.81459 2.09481 6.28525 2.25235C3.80612 2.99017 2 5.28748 2 8.00402C2 11.3177 4.68629 14.004 8 14.004C10.7165 14.004 13.0138 12.1979 13.7517 9.71879C13.9092 9.18945 14.466 8.88805 14.9954 9.04559C15.5247 9.20313 15.8261 9.75996 15.6686 10.2893C14.6853 13.5931 11.6255 16.004 8 16.004C3.58172 16.004 0 12.4223 0 8.00402C0 4.37852 2.4109 1.31872 5.71475 0.335443C6.24409 0.177904 6.80091 0.479308 6.95845 1.00865ZM8 4.00402C8.51284 4.00402 8.93551 4.39006 8.99327 4.8874L9 5.00402V7.60449L11 9.50402C11.3905 9.89455 11.3905 10.5277 11 10.9182C10.6395 11.2787 10.0723 11.3064 9.67999 11.0014L9.58579 10.9182L7.29289 8.71113C7.13661 8.55485 7.0374 8.35217 7.00867 8.13547L7 8.00402V5.00402C7 4.45174 7.44772 4.00402 8 4.00402Z" fill="#1D212A" fill-opacity="0.72"/>
</svg>
