<svg width="32" height="32" viewBox="0 0 32 32" fill="none" xmlns="http://www.w3.org/2000/svg">
<circle cx="16" cy="16" r="16" fill="#297EF1"/>
<path fill-rule="evenodd" clip-rule="evenodd" d="M15.6191 9.42452C17.1291 7.91457 19.3902 7.60657 21.2082 8.49301L18.4813 11.2199C18.1883 11.5129 18.1883 11.9862 18.4813 12.2791L19.6757 13.4736C19.9687 13.7741 20.442 13.7741 20.7349 13.4736L23.4618 10.7467C24.3408 12.5721 24.0328 14.8183 22.5228 16.3282C21.1256 17.7255 19.0822 18.0936 17.3469 17.44L11.3673 23.4197C10.5935 24.1934 9.34648 24.1934 8.58024 23.4197C7.80649 22.6459 7.80649 21.3989 8.58024 20.6327L14.5299 14.6755C13.8388 12.9177 14.1993 10.8443 15.6191 9.42452Z" fill="#FFFFFF"/>
</svg>
