<svg width="16" height="16" viewBox="0 0 16 16" fill="none" xmlns="http://www.w3.org/2000/svg">
<g id="icons/16/icon-list-min">
<path id="Shape" fill-rule="evenodd" clip-rule="evenodd" d="M1 13C1.55228 13 2 13.4477 2 14C2 14.5523 1.55228 15 1 15C0.447715 15 0 14.5523 0 14C0 13.4477 0.447715 13 1 13ZM15 13C15.5523 13 16 13.4477 16 14C16 14.5523 15.5523 15 15 15H5C4.44772 15 4 14.5523 4 14C4 13.4477 4.44772 13 5 13H15ZM1 9C1.55228 9 2 9.44772 2 10C2 10.5523 1.55228 11 1 11C0.447715 11 0 10.5523 0 10C0 9.44772 0.447715 9 1 9ZM15 9C15.5523 9 16 9.44772 16 10C16 10.5523 15.5523 11 15 11H5C4.44772 11 4 10.5523 4 10C4 9.44772 4.44772 9 5 9H15ZM1 5C1.55228 5 2 5.44772 2 6C2 6.55228 1.55228 7 1 7C0.447715 7 0 6.55228 0 6C0 5.44772 0.447715 5 1 5ZM15 5C15.5523 5 16 5.44772 16 6C16 6.55228 15.5523 7 15 7H5C4.44772 7 4 6.55228 4 6C4 5.44772 4.44772 5 5 5H15ZM1 1C1.55228 1 2 1.44772 2 2C2 2.55228 1.55228 3 1 3C0.447715 3 0 2.55228 0 2C0 1.44772 0.447715 1 1 1ZM15 1C15.5523 1 16 1.44772 16 2C16 2.55228 15.5523 3 15 3H5C4.44772 3 4 2.55228 4 2C4 1.44772 4.44772 1 5 1H15Z" fill="#1D212A" fill-opacity="0.72"/>
</g>
</svg>
