<svg width="32" height="32" viewBox="0 0 32 32" fill="none" xmlns="http://www.w3.org/2000/svg">
<g id="icons/files/password">
<path id="Rectangle Copy" fill-rule="evenodd" clip-rule="evenodd" d="M4 6H28C30.2091 6 32 7.79086 32 10V22C32 24.2091 30.2091 26 28 26H4C1.79086 26 0 24.2091 0 22V10C0 7.79086 1.79086 6 4 6Z" fill="#91BFFF"/>
<path id="Shape" fill-rule="evenodd" clip-rule="evenodd" d="M25.5 3C26.3284 3 27 3.67157 27 4.5V27.5C27 28.3284 26.3284 29 25.5 29C24.6716 29 24 28.3284 24 27.5V4.5C24 3.67157 24.6716 3 25.5 3ZM9.91123 12C10.2454 12 10.5553 12.1184 10.8407 12.3551C11.1262 12.5918 11.2689 12.8703 11.2689 13.1906C11.2689 13.3716 11.2063 13.5596 11.0809 13.7546L10.2872 14.9034L11.7076 14.799C12.0557 14.785 12.3238 14.8964 12.5117 15.1332C12.6997 15.3699 12.7937 15.6554 12.7937 15.9896C12.7937 16.3377 12.6997 16.6301 12.5117 16.8668C12.3238 17.1036 12.0557 17.208 11.7076 17.1802L10.2663 17.0757L11.0809 18.2663C11.2063 18.4473 11.2689 18.6284 11.2689 18.8094C11.2689 19.1297 11.1227 19.4082 10.8303 19.6449C10.5379 19.8816 10.2245 20 9.89034 20C9.70931 20 9.54221 19.9547 9.38903 19.8642C9.23586 19.7737 9.11749 19.6379 9.03394 19.4569L8.40731 18.1619L7.75979 19.4569C7.57876 19.819 7.2933 20 6.90339 20C6.56919 20 6.25936 19.8782 5.97389 19.6345C5.68842 19.3908 5.54569 19.1088 5.54569 18.7885C5.54569 18.5936 5.60139 18.4195 5.71279 18.2663L6.52742 17.0757L5.08616 17.1802C4.73803 17.1941 4.46997 17.0862 4.28198 16.8564C4.09399 16.6266 4 16.3446 4 16.0104C4 15.6762 4.09748 15.3873 4.29243 15.1436C4.48738 14.8999 4.75196 14.785 5.08616 14.799L6.50653 14.9034L5.71279 13.7546C5.58747 13.5596 5.5248 13.3716 5.5248 13.1906C5.5248 12.8842 5.66754 12.6127 5.953 12.376C6.23847 12.1393 6.5483 12.0209 6.88251 12.0209C7.28634 12.0209 7.57876 12.2019 7.75979 12.564L8.40731 13.859L9.03394 12.564C9.21497 12.188 9.5074 12 9.91123 12ZM19.9112 12C20.2454 12 20.5553 12.1184 20.8407 12.3551C21.1262 12.5918 21.2689 12.8703 21.2689 13.1906C21.2689 13.3716 21.2063 13.5596 21.0809 13.7546L20.2872 14.9034L21.7076 14.799C22.0557 14.785 22.3238 14.8964 22.5117 15.1332C22.6997 15.3699 22.7937 15.6554 22.7937 15.9896C22.7937 16.3377 22.6997 16.6301 22.5117 16.8668C22.3238 17.1036 22.0557 17.208 21.7076 17.1802L20.2663 17.0757L21.0809 18.2663C21.2063 18.4473 21.2689 18.6284 21.2689 18.8094C21.2689 19.1297 21.1227 19.4082 20.8303 19.6449C20.5379 19.8816 20.2245 20 19.8903 20C19.7093 20 19.5422 19.9547 19.389 19.8642C19.2359 19.7737 19.1175 19.6379 19.0339 19.4569L18.4073 18.1619L17.7598 19.4569C17.5788 19.819 17.2933 20 16.9034 20C16.5692 20 16.2594 19.8782 15.9739 19.6345C15.6884 19.3908 15.5457 19.1088 15.5457 18.7885C15.5457 18.5936 15.6014 18.4195 15.7128 18.2663L16.5274 17.0757L15.0862 17.1802C14.738 17.1941 14.47 17.0862 14.282 16.8564C14.094 16.6266 14 16.3446 14 16.0104C14 15.6762 14.0975 15.3873 14.2924 15.1436C14.4874 14.8999 14.752 14.785 15.0862 14.799L16.5065 14.9034L15.7128 13.7546C15.5875 13.5596 15.5248 13.3716 15.5248 13.1906C15.5248 12.8842 15.6675 12.6127 15.953 12.376C16.2385 12.1393 16.5483 12.0209 16.8825 12.0209C17.2863 12.0209 17.5788 12.2019 17.7598 12.564L18.4073 13.859L19.0339 12.564C19.215 12.188 19.5074 12 19.9112 12Z" fill="#297EF1"/>
</g>
</svg>
