<svg width="16" height="16" viewBox="0 0 16 16" fill="none" xmlns="http://www.w3.org/2000/svg">
<path fill-rule="evenodd" clip-rule="evenodd" d="M9 5.58579L9.29289 5.29289C9.68342 4.90237 10.3166 4.90237 10.7071 5.29289C11.0976 5.68342 11.0976 6.31658 10.7071 6.70711L8.70711 8.70711C8.31658 9.09763 7.68342 9.09763 7.29289 8.70711L5.29289 6.70711C4.90237 6.31658 4.90237 5.68342 5.29289 5.29289C5.68342 4.90237 6.31658 4.90237 6.70711 5.29289L7 5.58579V1C7 0.447715 7.44772 0 8 0C8.55229 0 9 0.447715 9 1V5.58579ZM2.0541 9L3.72076 3.99999L3.99599 3.99999L4 4C4.55228 4 5 3.55228 5 3C5 2.44772 4.55228 2 4 2L3.72077 1.99999C2.8599 1.99999 2.09562 2.55085 1.82339 3.36754L0.153949 8.37589C0.0519831 8.68179 0 9.00213 0 9.32457V12C0 13.1046 0.895431 14 2 14H14C15.1046 14 16 13.1046 16 12V9.32458C16 9.00213 15.948 8.68179 15.8461 8.37589L14.1766 3.36756C13.9044 2.55088 13.1401 2.00002 12.2792 2.00002L12.0058 2.00002C12.0039 2.00001 12.0019 2 12 2C11.4477 2 11 2.44772 11 3C11 3.55228 11.4477 4 12 4L12.2792 4.00002L13.9459 9H11.8081C11.2907 9 10.7945 9.20555 10.4286 9.57143L9.70711 10.2929C9.25435 10.7456 8.64029 11 8 11C7.35971 11 6.74565 10.7456 6.29289 10.2929L5.57143 9.57143C5.20555 9.20555 4.70931 9 4.19188 9H2.0541Z" fill="#1D212A" fill-opacity="0.72"/>
</svg>
