<svg width="16" height="16" viewBox="0 0 16 16" fill="none" xmlns="http://www.w3.org/2000/svg">
<g id="icons/16/setting">
<path id="Shape" fill-rule="evenodd" clip-rule="evenodd" d="M12 3C12 2.44772 11.5523 2 11 2C10.4477 2 10 2.44772 10 3C10 3.55228 10.4477 4 11 4C11.5523 4 12 3.55228 12 3ZM11 0C9.69378 0 8.58254 0.834808 8.17071 2H1C0.447716 2 0 2.44772 0 3C0 3.55228 0.447716 4 1 4H8.17071C8.58254 5.16519 9.69378 6 11 6C12.3062 6 13.4175 5.16519 13.8293 4H15C15.5523 4 16 3.55228 16 3C16 2.44772 15.5523 2 15 2H13.8293C13.4175 0.834808 12.3062 0 11 0ZM6 8C6 7.44772 5.55228 7 5 7C4.44772 7 4 7.44772 4 8C4 8.55228 4.44772 9 5 9C5.55228 9 6 8.55228 6 8ZM5 5C3.69378 5 2.58254 5.83481 2.17071 7H1C0.447716 7 0 7.44772 0 8C0 8.55228 0.447716 9 1 9H2.17071C2.58254 10.1652 3.69378 11 5 11C6.30622 11 7.41746 10.1652 7.82929 9H15C15.5523 9 16 8.55228 16 8C16 7.44772 15.5523 7 15 7H7.82929C7.41746 5.83481 6.30622 5 5 5ZM16 13C16 12.4477 15.5523 12 15 12H13.8293C13.4175 10.8348 12.3062 10 11 10C9.69378 10 8.58254 10.8348 8.17071 12H1C0.447716 12 0 12.4477 0 13C0 13.5523 0.447716 14 1 14H8.17071C8.58254 15.1652 9.69378 16 11 16C12.3062 16 13.4175 15.1652 13.8293 14H15C15.5523 14 16 13.5523 16 13ZM11 14C10.4477 14 10 13.5523 10 13C10 12.4477 10.4477 12 11 12C11.5523 12 12 12.4477 12 13C12 13.5523 11.5523 14 11 14Z" fill="#1D212A" fill-opacity="0.72"/>
</g>
</svg>
