<svg width="16" height="16" viewBox="0 0 16 16" fill="none" xmlns="http://www.w3.org/2000/svg">
<path d="M5 5C5 4.44772 5.44771 4 6 4H11C11.5523 4 12 4.44772 12 5V10C12 10.5523 11.5523 11 11 11C10.4477 11 10 10.5523 10 10V7.41421L5.70711 11.7071C5.31658 12.0976 4.68342 12.0976 4.29289 11.7071C3.90237 11.3166 3.90237 10.6834 4.29289 10.2929L8.58579 6H6C5.44771 6 5 5.55228 5 5Z" fill="#1D212A" fill-opacity="0.72"/>
<path fill-rule="evenodd" clip-rule="evenodd" d="M0 2C0 0.895431 0.895431 0 2 0H14C15.1046 0 16 0.895431 16 2V14C16 15.1046 15.1046 16 14 16H2C0.895431 16 0 15.1046 0 14V2ZM2 2H14V14H2V2Z" fill="#1D212A" fill-opacity="0.72"/>
</svg>
